<svg xmlns="http://www.w3.org/2000/svg" viewBox="0 0 32 32" fill="none">
  <g transform="translate(3,3)">
    <path d="M19.46,7.95 A8.2,8.2 0 1 0 19.46,18.05" stroke="#2563EB" stroke-width="3" stroke-linecap="round" fill="none"/>
    <path d="M19.46,18.05 L24.06,22.64" stroke="#2563EB" stroke-width="3" stroke-linecap="round"/>
    <path d="M10.50,12.20 C11.07,13.93 11.07,13.93 12.80,14.50 C11.07,15.07 11.07,15.07 10.50,16.80 C9.93,15.07 9.93,15.07 8.20,14.50 C9.93,13.93 9.93,13.93 10.50,12.20 Z" fill="#2563EB"/>
    <path d="M14.20,9.40 C14.55,10.45 14.55,10.45 15.60,10.80 C14.55,11.15 14.55,11.15 14.20,12.20 C13.85,11.15 13.85,11.15 12.80,10.80 C13.85,10.45 13.85,10.45 14.20,9.40 Z" fill="#2563EB"/>
  </g>
</svg>
